<svg width="2473" height="340" viewBox="0 0 2473 340" fill="none" xmlns="http://www.w3.org/2000/svg">
<path d="M883.959 244.8C877.559 244.267 872.559 242.2 868.959 238.6C865.359 235 863.559 230.467 863.559 225C863.559 220.733 864.625 216.267 866.759 211.6L911.959 111C913.425 107.667 915.292 105.2 917.559 103.6C919.959 102 922.892 101.2 926.359 101.2C929.825 101.2 932.692 102 934.959 103.6C937.359 105.2 939.292 107.667 940.759 111L985.959 211.6C988.092 216.267 989.159 220.667 989.159 224.8C989.159 230.4 987.359 235 983.759 238.6C980.159 242.2 975.092 244.267 968.559 244.8L951.759 208.2H900.759L883.959 244.8ZM942.759 183L922.159 131.8L919.359 133L924.759 146.4L909.559 183H942.759ZM1042.01 243C1038.01 243 1034.54 241.733 1031.61 239.2C1028.67 236.533 1027.21 233.333 1027.21 229.6V116.4C1027.21 112.667 1028.61 109.533 1031.41 107C1034.34 104.333 1037.87 103 1042.01 103H1095.01C1108.34 103 1118.94 106.6 1126.81 113.8C1134.81 121 1138.81 130.667 1138.81 142.8C1138.81 148.267 1137.27 153.533 1134.21 158.6C1131.27 163.533 1127.34 167.467 1122.41 170.4V171.2C1129.21 173.6 1134.61 177.533 1138.61 183C1142.61 188.467 1144.61 194.533 1144.61 201.2C1144.61 209.333 1142.67 216.6 1138.81 223C1134.94 229.267 1129.54 234.2 1122.61 237.8C1115.67 241.267 1107.74 243 1098.81 243H1042.01ZM1094.61 160.8C1098.74 160.8 1102.21 159.2 1105.01 156C1107.94 152.667 1109.41 148.667 1109.41 144C1109.41 138.933 1108.07 135 1105.41 132.2C1102.74 129.267 1099.14 127.8 1094.61 127.8H1055.81V160.8H1094.61ZM1098.61 218.2C1103.67 218.2 1107.67 216.733 1110.61 213.8C1113.67 210.733 1115.21 206.667 1115.21 201.6C1115.21 196.4 1113.74 192.4 1110.81 189.6C1107.87 186.667 1103.81 185.2 1098.61 185.2H1055.81V218.2H1098.61ZM1233.68 244.8C1222.75 244.8 1212.68 242.667 1203.48 238.4C1194.28 234 1186.95 228.133 1181.48 220.8C1176.15 213.333 1173.48 205.333 1173.48 196.8V149.2C1173.48 140.667 1176.15 132.733 1181.48 125.4C1186.95 117.933 1194.28 112.067 1203.48 107.8C1212.68 103.4 1222.75 101.2 1233.68 101.2C1244.61 101.2 1254.68 103.4 1263.88 107.8C1273.08 112.067 1280.35 117.933 1285.68 125.4C1291.15 132.733 1293.88 140.667 1293.88 149.2V196.8C1293.88 205.333 1291.15 213.333 1285.68 220.8C1280.35 228.133 1273.08 234 1263.88 238.4C1254.68 242.667 1244.61 244.8 1233.68 244.8ZM1233.68 219.2C1242.75 219.2 1250.15 217.067 1255.88 212.8C1261.61 208.533 1264.48 203 1264.48 196.2V149.8C1264.48 143 1261.61 137.467 1255.88 133.2C1250.15 128.933 1242.75 126.8 1233.68 126.8C1224.61 126.8 1217.21 128.933 1211.48 133.2C1205.75 137.467 1202.88 143 1202.88 149.8V196.2C1202.88 203 1205.75 208.533 1211.48 212.8C1217.21 217.067 1224.61 219.2 1233.68 219.2ZM1390.86 244.8C1379.39 244.8 1369.06 242.533 1359.86 238C1350.79 233.333 1343.66 226.867 1338.46 218.6C1333.39 210.333 1330.86 201.067 1330.86 190.8V122.4C1330.86 115.467 1333.32 110.2 1338.26 106.6C1343.32 103 1350.66 101.2 1360.26 101.2V190.8C1360.26 199.467 1362.99 206.4 1368.46 211.6C1374.06 216.667 1381.52 219.2 1390.86 219.2C1400.19 219.2 1407.59 216.667 1413.06 211.6C1418.66 206.4 1421.46 199.467 1421.46 190.8V122.4C1421.46 115.467 1423.92 110.2 1428.86 106.6C1433.92 103 1441.26 101.2 1450.86 101.2V190.8C1450.86 201.067 1448.26 210.333 1443.06 218.6C1437.99 226.867 1430.86 233.333 1421.66 238C1412.59 242.533 1402.32 244.8 1390.86 244.8ZM1534.09 128.4H1485.89C1485.89 111.467 1493.56 103 1508.89 103H1611.49C1611.49 119.933 1603.83 128.4 1588.49 128.4H1563.49V223.6C1563.49 230.533 1560.96 235.8 1555.89 239.4C1550.96 243 1543.69 244.8 1534.09 244.8V128.4Z" fill="white" fill-opacity="0.48"/>
</svg>
